<mxfile host="65bd71144e">
    <diagram id="-m09C2-IahctmsYCSVrG" name="Page-1">
        <mxGraphModel dx="1101" dy="592" grid="1" gridSize="10" guides="1" tooltips="1" connect="1" arrows="1" fold="1" page="1" pageScale="1" pageWidth="827" pageHeight="1169" background="#ffffff" math="0" shadow="0">
            <root>
                <mxCell id="0"/>
                <mxCell id="1" parent="0"/>
                <mxCell id="69" value="" style="shape=process;whiteSpace=wrap;html=1;backgroundOutline=1;strokeColor=#030303;fontSize=20;fontColor=#000000;fillColor=#FFFFFF;gradientColor=none;size=0.3125;" parent="1" vertex="1">
                    <mxGeometry x="10" y="10" width="800" height="1130" as="geometry"/>
                </mxCell>
                <mxCell id="70" value="" style="endArrow=none;html=1;strokeColor=#000000;fontSize=20;fontColor=#000000;" parent="1" edge="1">
                    <mxGeometry width="50" height="50" relative="1" as="geometry">
                        <mxPoint x="10" y="40" as="sourcePoint"/>
                        <mxPoint x="810" y="40" as="targetPoint"/>
                    </mxGeometry>
                </mxCell>
                <mxCell id="72" value="User" style="text;html=1;strokeColor=none;fillColor=none;align=center;verticalAlign=middle;whiteSpace=wrap;rounded=0;fontSize=20;fontColor=#000000;" parent="1" vertex="1">
                    <mxGeometry x="100" y="10" width="60" height="30" as="geometry"/>
                </mxCell>
                <mxCell id="73" value="Server" style="text;html=1;strokeColor=none;fillColor=none;align=center;verticalAlign=middle;whiteSpace=wrap;rounded=0;fontSize=20;fontColor=#000000;" parent="1" vertex="1">
                    <mxGeometry x="370" y="10" width="60" height="30" as="geometry"/>
                </mxCell>
                <mxCell id="74" value="Googletrans API" style="text;html=1;strokeColor=none;fillColor=none;align=center;verticalAlign=middle;whiteSpace=wrap;rounded=0;fontSize=20;fontColor=#000000;" parent="1" vertex="1">
                    <mxGeometry x="590" y="10" width="210" height="30" as="geometry"/>
                </mxCell>
                <mxCell id="79" style="edgeStyle=none;html=1;strokeColor=#000000;fontSize=20;fontColor=#000000;" parent="1" source="75" target="78" edge="1">
                    <mxGeometry relative="1" as="geometry"/>
                </mxCell>
                <mxCell id="75" value="" style="ellipse;whiteSpace=wrap;html=1;aspect=fixed;strokeColor=#030303;fontSize=20;fontColor=#000000;fillColor=#000000;gradientColor=none;" parent="1" vertex="1">
                    <mxGeometry x="110" y="50" width="20" height="20" as="geometry"/>
                </mxCell>
                <mxCell id="81" value="" style="edgeStyle=none;html=1;strokeColor=#000000;fontSize=16;fontColor=#000000;" parent="1" source="78" target="80" edge="1">
                    <mxGeometry relative="1" as="geometry"/>
                </mxCell>
                <mxCell id="78" value="&lt;div style=&quot;&quot;&gt;&lt;span style=&quot;font-size: 16px; background-color: initial;&quot;&gt;Creates/Joins a room&lt;/span&gt;&lt;/div&gt;" style="rounded=0;whiteSpace=wrap;html=1;strokeColor=#030303;fontSize=20;fontColor=#000000;fillColor=#FFFFFF;gradientColor=none;align=center;" parent="1" vertex="1">
                    <mxGeometry x="60" y="90" width="120" height="70" as="geometry"/>
                </mxCell>
                <mxCell id="83" value="" style="edgeStyle=none;html=1;strokeColor=#000000;fontSize=16;fontColor=#000000;" parent="1" source="80" target="82" edge="1">
                    <mxGeometry relative="1" as="geometry"/>
                </mxCell>
                <mxCell id="80" value="&lt;div style=&quot;&quot;&gt;&lt;span style=&quot;font-size: 16px; background-color: initial;&quot;&gt;Writes a message&lt;/span&gt;&lt;/div&gt;" style="rounded=0;whiteSpace=wrap;html=1;strokeColor=#030303;fontSize=20;fontColor=#000000;fillColor=#FFFFFF;gradientColor=none;align=center;" parent="1" vertex="1">
                    <mxGeometry x="60" y="200" width="120" height="70" as="geometry"/>
                </mxCell>
                <mxCell id="85" value="" style="edgeStyle=none;html=1;strokeColor=#000000;fontSize=16;fontColor=#000000;" parent="1" source="82" target="84" edge="1">
                    <mxGeometry relative="1" as="geometry"/>
                </mxCell>
                <mxCell id="82" value="&lt;div style=&quot;&quot;&gt;&lt;span style=&quot;font-size: 16px;&quot;&gt;Receives message from user&lt;/span&gt;&lt;/div&gt;" style="rounded=0;whiteSpace=wrap;html=1;strokeColor=#030303;fontSize=20;fontColor=#000000;fillColor=#FFFFFF;gradientColor=none;align=center;" parent="1" vertex="1">
                    <mxGeometry x="340" y="200" width="120" height="70" as="geometry"/>
                </mxCell>
                <mxCell id="87" value="" style="edgeStyle=none;html=1;strokeColor=#000000;fontSize=14;fontColor=#000000;exitX=0;exitY=0.5;exitDx=0;exitDy=0;entryX=0.19;entryY=0;entryDx=0;entryDy=0;entryPerimeter=0;" parent="1" source="84" target="86" edge="1">
                    <mxGeometry relative="1" as="geometry">
                        <Array as="points">
                            <mxPoint x="290" y="350"/>
                        </Array>
                    </mxGeometry>
                </mxCell>
                <mxCell id="93" value="" style="edgeStyle=none;html=1;strokeColor=#000000;fontSize=16;fontColor=#000000;exitX=1;exitY=0.5;exitDx=0;exitDy=0;entryX=0.667;entryY=0;entryDx=0;entryDy=0;entryPerimeter=0;" parent="1" source="84" target="92" edge="1">
                    <mxGeometry relative="1" as="geometry">
                        <Array as="points">
                            <mxPoint x="500" y="350"/>
                        </Array>
                    </mxGeometry>
                </mxCell>
                <mxCell id="84" value="&lt;font style=&quot;font-size: 14px;&quot;&gt;Has connection to internet&lt;/font&gt;" style="rhombus;whiteSpace=wrap;html=1;fontSize=20;fillColor=#FFFFFF;strokeColor=#030303;fontColor=#000000;rounded=0;gradientColor=none;" parent="1" vertex="1">
                    <mxGeometry x="320" y="292" width="160" height="118" as="geometry"/>
                </mxCell>
                <mxCell id="89" value="" style="edgeStyle=none;html=1;strokeColor=#000000;fontSize=16;fontColor=#000000;" parent="1" source="86" target="88" edge="1">
                    <mxGeometry relative="1" as="geometry"/>
                </mxCell>
                <mxCell id="86" value="&lt;font style=&quot;font-size: 16px;&quot;&gt;Send error message&lt;/font&gt;" style="whiteSpace=wrap;html=1;fontSize=20;fillColor=#FFFFFF;strokeColor=#030303;fontColor=#000000;rounded=0;gradientColor=none;" parent="1" vertex="1">
                    <mxGeometry x="270" y="420" width="100" height="50" as="geometry"/>
                </mxCell>
                <mxCell id="88" value="" style="ellipse;whiteSpace=wrap;html=1;fontSize=20;fillColor=#FFFFFF;strokeColor=#030303;fontColor=#000000;rounded=0;gradientColor=none;" parent="1" vertex="1">
                    <mxGeometry x="295" y="500" width="50" height="50" as="geometry"/>
                </mxCell>
                <mxCell id="90" value="" style="ellipse;whiteSpace=wrap;html=1;strokeColor=#030303;fontSize=16;fontColor=#000000;fillColor=#000000;gradientColor=none;" parent="1" vertex="1">
                    <mxGeometry x="302.5" y="508.12" width="35" height="33.75" as="geometry"/>
                </mxCell>
                <mxCell id="91" value="NO" style="text;html=1;strokeColor=none;fillColor=none;align=center;verticalAlign=middle;whiteSpace=wrap;rounded=0;fontSize=16;fontColor=#000000;" parent="1" vertex="1">
                    <mxGeometry x="270" y="320" width="60" height="30" as="geometry"/>
                </mxCell>
                <mxCell id="95" value="" style="edgeStyle=none;html=1;strokeColor=#000000;fontSize=17;fontColor=#000000;" parent="1" source="92" target="94" edge="1">
                    <mxGeometry relative="1" as="geometry"/>
                </mxCell>
                <mxCell id="92" value="&lt;font style=&quot;font-size: 17px;&quot;&gt;Send message to API&lt;/font&gt;" style="whiteSpace=wrap;html=1;fontSize=20;fillColor=#FFFFFF;strokeColor=#030303;fontColor=#000000;rounded=0;gradientColor=none;" parent="1" vertex="1">
                    <mxGeometry x="420" y="420" width="120" height="50" as="geometry"/>
                </mxCell>
                <mxCell id="97" value="" style="edgeStyle=none;html=1;strokeColor=#000000;fontSize=17;fontColor=#000000;entryX=0.985;entryY=0.4;entryDx=0;entryDy=0;entryPerimeter=0;" parent="1" source="94" target="96" edge="1">
                    <mxGeometry relative="1" as="geometry">
                        <Array as="points">
                            <mxPoint x="690" y="610"/>
                        </Array>
                    </mxGeometry>
                </mxCell>
                <mxCell id="94" value="Translates message" style="whiteSpace=wrap;html=1;fontSize=20;fillColor=#FFFFFF;strokeColor=#030303;fontColor=#000000;rounded=0;gradientColor=none;" parent="1" vertex="1">
                    <mxGeometry x="630" y="415" width="120" height="60" as="geometry"/>
                </mxCell>
                <mxCell id="99" value="" style="edgeStyle=none;html=1;strokeColor=#000000;fontSize=17;fontColor=#000000;" parent="1" source="96" target="98" edge="1">
                    <mxGeometry relative="1" as="geometry"/>
                </mxCell>
                <mxCell id="96" value="Forward messages to users" style="whiteSpace=wrap;html=1;fontSize=20;fillColor=#FFFFFF;strokeColor=#030303;fontColor=#000000;rounded=0;gradientColor=none;" parent="1" vertex="1">
                    <mxGeometry x="350" y="580" width="130" height="70" as="geometry"/>
                </mxCell>
                <mxCell id="101" value="" style="edgeStyle=none;html=1;strokeColor=#000000;fontSize=17;fontColor=#000000;" parent="1" source="98" target="100" edge="1">
                    <mxGeometry relative="1" as="geometry"/>
                </mxCell>
                <mxCell id="98" value="Receives message" style="whiteSpace=wrap;html=1;fontSize=20;fillColor=#FFFFFF;strokeColor=#030303;fontColor=#000000;rounded=0;gradientColor=none;" parent="1" vertex="1">
                    <mxGeometry x="90" y="585" width="120" height="60" as="geometry"/>
                </mxCell>
                <mxCell id="102" style="edgeStyle=none;html=1;exitX=0;exitY=0.5;exitDx=0;exitDy=0;entryX=0;entryY=0.5;entryDx=0;entryDy=0;strokeColor=#000000;fontSize=16;fontColor=#000000;" parent="1" source="100" target="80" edge="1">
                    <mxGeometry relative="1" as="geometry">
                        <Array as="points">
                            <mxPoint x="20" y="715"/>
                            <mxPoint x="20" y="235"/>
                        </Array>
                    </mxGeometry>
                </mxCell>
                <mxCell id="110" value="" style="edgeStyle=none;html=1;strokeColor=#000000;fontSize=16;fontColor=#000000;entryX=0.833;entryY=-0.033;entryDx=0;entryDy=0;exitX=1;exitY=0.5;exitDx=0;exitDy=0;entryPerimeter=0;" parent="1" source="100" target="109" edge="1">
                    <mxGeometry relative="1" as="geometry">
                        <Array as="points">
                            <mxPoint x="230" y="715"/>
                        </Array>
                    </mxGeometry>
                </mxCell>
                <mxCell id="100" value="&lt;font style=&quot;font-size: 16px;&quot;&gt;Continue chatting&lt;/font&gt;" style="rhombus;whiteSpace=wrap;html=1;fontSize=20;fillColor=#FFFFFF;strokeColor=#030303;fontColor=#000000;rounded=0;gradientColor=none;" parent="1" vertex="1">
                    <mxGeometry x="100" y="670" width="100" height="90" as="geometry"/>
                </mxCell>
                <mxCell id="103" value="YES" style="text;html=1;strokeColor=none;fillColor=none;align=center;verticalAlign=middle;whiteSpace=wrap;rounded=0;fontSize=16;fontColor=#000000;" parent="1" vertex="1">
                    <mxGeometry x="40" y="680" width="60" height="30" as="geometry"/>
                </mxCell>
                <mxCell id="104" value="YES" style="text;html=1;strokeColor=none;fillColor=none;align=center;verticalAlign=middle;whiteSpace=wrap;rounded=0;fontSize=16;fontColor=#000000;" parent="1" vertex="1">
                    <mxGeometry x="470" y="320" width="60" height="30" as="geometry"/>
                </mxCell>
                <mxCell id="105" value="NO" style="text;html=1;strokeColor=none;fillColor=none;align=center;verticalAlign=middle;whiteSpace=wrap;rounded=0;fontSize=16;fontColor=#000000;" parent="1" vertex="1">
                    <mxGeometry x="200" y="680" width="60" height="30" as="geometry"/>
                </mxCell>
                <mxCell id="113" style="edgeStyle=none;html=1;exitX=0.5;exitY=1;exitDx=0;exitDy=0;entryX=0.5;entryY=0;entryDx=0;entryDy=0;strokeColor=#000000;fontSize=16;fontColor=#000000;" parent="1" source="109" target="111" edge="1">
                    <mxGeometry relative="1" as="geometry"/>
                </mxCell>
                <mxCell id="109" value="Return to homepage" style="whiteSpace=wrap;html=1;fontSize=20;fillColor=#FFFFFF;strokeColor=#030303;fontColor=#000000;rounded=0;gradientColor=none;" parent="1" vertex="1">
                    <mxGeometry x="130" y="770" width="120" height="60" as="geometry"/>
                </mxCell>
                <mxCell id="111" value="" style="ellipse;whiteSpace=wrap;html=1;fontSize=20;fillColor=#FFFFFF;strokeColor=#030303;fontColor=#000000;rounded=0;gradientColor=none;" parent="1" vertex="1">
                    <mxGeometry x="165" y="850" width="50" height="50" as="geometry"/>
                </mxCell>
                <mxCell id="112" value="" style="ellipse;whiteSpace=wrap;html=1;strokeColor=#030303;fontSize=16;fontColor=#000000;fillColor=#000000;gradientColor=none;" parent="1" vertex="1">
                    <mxGeometry x="172.5" y="858.12" width="35" height="33.75" as="geometry"/>
                </mxCell>
            </root>
        </mxGraphModel>
    </diagram>
</mxfile>